<svg version="1.1" xmlns="http://www.w3.org/2000/svg" xmlns:xlink="http://www.w3.org/1999/xlink" width="263.86163" height="87.60002" viewBox="0,0,263.86163,87.60002"><g transform="translate(-108.06919,-136.19999)"><g data-paper-data="{&quot;isPaintingLayer&quot;:true}" fill-rule="nonzero" stroke="none" stroke-width="1" stroke-linecap="butt" stroke-linejoin="miter" stroke-miterlimit="10" stroke-dasharray="" stroke-dashoffset="0" style="mix-blend-mode: normal"><g><path d="M175.04783,187.46001c-0.01,0.1 -0.02,0.2 -0.03,0.3c-0.64,5.02 -2.87,9.67 -6.63,13.82c-0.04,0.05 -0.09,0.1 -0.14,0.15c-2.76,2.93 -6.44,5.51 -11.25,7.88c-7.44,3.65 -14.43,5.59 -20.82,5.78c-1,0.06 -2.59,0.13 -4.75,0.22c-3.52,0.14 -3.63,0.14 -3.92,0.14h-4.26c-0.5,0.05 -0.99,0.08 -1.48,0.08c-2.79,0 -5.47,-0.83 -7.76,-2.39c-3.2,-2.18 -5.27,-5.52 -5.83,-9.41c-0.32,-2.27 0.07,-4.59 1.13,-6.63c1.94,-3.75 5.3,-6.37 9.38,-7.45c-0.23,-3.94 -0.58,-10.01 -1.04,-18.22c-0.36,-0.13 -0.71,-0.27 -1.06,-0.42c-5.09,-2.2 -8.25,-6.81 -8.25,-12.03c0,-1.96 0.45,-3.88 1.34,-5.72c2.47,-5.24 7.72,-8.36 14.05,-8.36c0.86,0 1.94,0.07 3.6,0.22c0.08,0.01 0.16,0.02 0.25,0.03c0.09,0.01 0.18,0.02 0.26,0.03c0.3,-0.02 0.61,-0.03 0.95,-0.03c0.91,0 2.43,0.06 7.42,0.49c3.61,0.34 6.5,0.75 8.91,1.24c0.06,0.02 0.13,0.03 0.19,0.04c10.28,2.31 18.76,8.72 25.23,19.07c0.02,0.04 0.04,0.08 0.06,0.12c1.3,2.14 2.49,4.93 3.72,8.77c0.01,0.04 0.02,0.07 0.03,0.1c0.99,3.2 1.21,7.07 0.7,12.18z" data-paper-data="{&quot;origPos&quot;:null}" fill="#f2d9dd"/><path d="M164.10383,186.36901c-0.352,2.757 -1.643,5.366 -3.871,7.829c-1.818,1.935 -4.516,3.782 -8.092,5.541c-6.1,2.991 -11.582,4.546 -16.448,4.662c-0.938,0.06 -2.507,0.132 -4.706,0.22c-2.199,0.088 -3.357,0.132 -3.475,0.132h-5.013c-0.88,0.177 -1.643,0.045 -2.287,-0.396c-0.645,-0.439 -1.025,-1.069 -1.144,-1.891c0.822,-1.584 2.433,-2.258 4.838,-2.023c3.752,0.352 5.894,0.439 6.421,0.264c0,-1.289 -0.059,-3.02 -0.176,-5.189c-0.234,-2.991 -0.382,-4.808 -0.439,-5.454c-0.294,-4.926 -0.792,-13.75 -1.495,-26.476c-0.06,-0.88 -0.206,-1.524 -0.44,-1.936c-0.294,-0.176 -0.675,-0.176 -1.144,0c-0.586,0.176 -1.29,0.264 -2.11,0.264c-1.291,0 -2.479,-0.233 -3.562,-0.703c-1.085,-0.469 -1.627,-1.113 -1.627,-1.936c0,-0.293 0.088,-0.615 0.264,-0.968c0.646,-1.407 2.022,-2.11 4.134,-2.11c0.469,0 1.319,0.059 2.551,0.176c0.997,0.118 1.729,0.146 2.199,0.088c0.469,-0.058 2.727,0.088 6.772,0.439c3.108,0.294 5.659,0.646 7.653,1.056c7.329,1.643 13.427,6.363 18.296,14.162c0.82,1.35 1.699,3.489 2.639,6.421c0.526,1.701 0.614,4.309 0.262,7.828zM157.59482,190.06301c1.172,-1.935 1.76,-4.046 1.76,-6.333c0,-5.511 -3.021,-10.995 -9.06,-16.448c-0.763,-0.704 -2.435,-1.76 -5.014,-3.167c-3.461,-1.816 -7.419,-2.814 -11.875,-2.99c0.586,13.488 1.144,23.456 1.671,29.906c0.234,2.111 0.586,5.249 1.056,9.412c3.049,0.176 6.51,-0.513 10.38,-2.067c3.87,-1.553 7.153,-3.62 9.852,-6.201c0.056,-0.058 0.468,-0.762 1.23,-2.112z" data-paper-data="{&quot;origPos&quot;:null}" fill="#ffffff"/><path d="M227.22883,210.49001c-0.11,0.14 -0.22,0.28 -0.35,0.42c-2.16,2.47 -4.96,3.72 -6.92,4.44c-3.71,1.46 -6.89,3.23 -9.44,5.26c-0.13,0.11 -0.26,0.21 -0.4,0.31c-2.48,1.79 -5.58,2.74 -9.5,2.87c-0.13,0.01 -0.26,0.01 -0.39,0.01c-3.04,0 -5.96,-1.08 -8.44,-3.12c-1.21,-0.99 -2.21,-2.16 -2.98,-3.45c-1.61,0.62 -3.34,0.94 -5.11,0.94c-0.66,0 -1.29,-0.05 -1.91,-0.16c-0.42,-0.06 -1.3,-0.18 -2.66,-0.37c-0.28,-0.03 -1.61,-0.16 -7.52,-0.65c-0.06,0 -0.12,-0.01 -0.18,-0.02c-4.24,-0.42 -7.03,-1.21 -9.35,-2.64c-0.11,-0.06 -0.22,-0.13 -0.32,-0.21c-3.56,-2.37 -5.69,-6.32 -5.69,-10.55c0,-6.84 4.54,-12.19 11.3,-13.32c0.09,-0.01 0.17,-0.02 0.26,-0.04c0.81,-0.11 1.66,-0.16 2.53,-0.17c0.02,-0.15 0.05,-0.3 0.08,-0.46c0.04,-0.22 0.09,-0.44 0.15,-0.66c0.89,-3.54 1.81,-7.6 2.76,-12.16c-3.61,-0.58 -6.06,-2.66 -6.95,-3.42c-1.53,-1.3 -2.68,-3 -3.32,-4.9c-1.54,-4.63 -0.34,-9.67 3.14,-13.16c2.15,-2.15 4.83,-3.56 7.73,-4.07c0.63,-0.11 1.61,-0.29 2.95,-0.56l0.15,-0.03c2.97,-0.55 6.38,-0.95 10.43,-1.22c2.92,-0.2 2.92,-0.2 3.36,-0.2c0.46,0 0.92,0.03 1.38,0.09c4.28,0.54 8,2.96 10.19,6.66c1.02,1.71 1.83,3.8 2.58,6.6c0.45,1.66 0.67,2.39 0.76,2.66c0.2,0.47 0.49,1.12 0.86,1.95c0.15,0.33 0.28,0.67 0.39,1.01c0.01,0.02 0.19,0.54 0.88,2.04c0.05,0.12 0.1,0.23 0.15,0.35c1.35,3.22 3.46,8.26 6.33,15.12c0.05,0.13 0.11,0.26 0.16,0.39c0.31,0.83 0.68,1.81 1.11,2.93c3.59,-0.27 7.08,0.87 9.96,3.23c0.29,0.23 0.57,0.48 0.83,0.74c2.74,2.74 3.32,6.14 3.51,7.26c0.05,0.34 0.09,0.68 0.12,1.03c0.33,4.48 -1.24,7.49 -2.62,9.23zM180.49883,217.71001c-1.25,-0.39 -2.42,-0.99 -3.44,-1.76c1.02,0.78 2.18,1.39 3.44,1.76z" data-paper-data="{&quot;origPos&quot;:null}" fill="#c0d0f1"/><path d="M271.8943,149.95401c0,2.93 -1.05,5.7 -2.96,7.91c-1.71,2.09 -3.9,3.69 -6.4,4.72c0.05,2.27 0.12,5.04 0.21,8.26v4.83c0.27,6.31 0.39,8.83 0.44,9.83c0.05,0.38 0.08,0.77 0.09,1.17c0.06,3.07 -0.03,7.46 -0.27,13.43c-0.02,0.46 -0.07,0.92 -0.15,1.37c-0.43,2.57 -1.6,5.07 -3.48,7.42c-2.49,3.1 -5.92,5.07 -9.68,5.54c-0.46,0.06 -0.92,0.09 -1.38,0.09c-2.17,0 -3.67,-0.56 -6.15,-1.49c-3.04,-1.14 -5.4,-3.56 -6.49,-6.58c-2.48,0.93 -5.05,1.3 -7.62,1.09c-1.22,-0.06 -3.02,0.03 -5.31,0.25c-0.34,0.04 -1.4,0.2 -3.79,0.73c-0.12,0.03 -0.24,0.05 -0.36,0.07c-2.46,0.47 -4.84,0.65 -7,0.56c-0.16,-0.01 -0.33,-0.02 -0.49,-0.04c-6.96,-0.61 -13.99,-5.33 -13.99,-14.47c0,-1.54 0.25,-3.06 0.74,-4.54c0.31,-0.91 0.73,-1.77 1.26,-2.58c1.26,-1.92 3.81,-4.78 8.29,-6.2v-1.72c0,-0.81 0.09,-1.62 0.27,-2.4l-0.16,-2.69c0,-0.07 -0.01,-0.14 -0.01,-0.22c-0.05,-1.22 -0.13,-2.31 -0.26,-3.24c-0.04,-0.29 -0.07,-0.58 -0.08,-0.87c-0.04,-0.57 -0.07,-1.19 -0.11,-1.87c-6.24,-1.58 -10.47,-7.01 -10.47,-14.05c0,-3.3 1.35,-6.33 4,-8.99c2.05,-2.07 4.36,-3.37 6.86,-3.89c1.8,-0.38 3.83,-0.47 7.1,-0.32c0.33,0 0.99,-0.03 2.19,-0.1c1.65,-0.11 2.8,-0.16 3.64,-0.16c2.95,0 5.38,1.11 7.13,2.13c2.6,-3.05 6.1,-4.94 10.15,-5.47c0.29,-0.03 0.57,-0.06 0.86,-0.08l3.33,-0.17c0.12,-0.01 0.24,-0.01 0.36,-0.01c2.69,-0.06 7.14,-0.36 13.24,-0.92c3.33,-0.36 6.66,0.44 9.73,2.34c4.27,2.63 6.72,6.76 6.72,11.33z" data-paper-data="{&quot;origPos&quot;:null}" fill="#cfe3c0"/><path d="M261.02583,150.74901c-0.939,1.231 -2.287,1.936 -4.047,2.111c-2.874,0.176 -4.516,0.323 -4.926,0.439c-0.059,1.231 -0.088,3.197 -0.088,5.894c0.029,2.757 0.117,6.744 0.264,11.963c0,1.114 0,2.697 0,4.75c0.353,8.327 0.528,11.992 0.528,10.994c0.058,2.815 -0.03,7.067 -0.264,12.755c-0.118,0.704 -0.528,1.495 -1.231,2.375c-0.704,0.88 -1.526,1.377 -2.463,1.495c-0.118,0 -0.88,-0.264 -2.287,-0.791c-0.176,-0.762 -0.411,-1.408 -0.704,-1.936c-1.174,-1.759 -2.757,-4.251 -4.749,-7.477c-1.291,-2.521 -3.314,-6.303 -6.069,-11.348c-1.936,-2.696 -4.838,-7.036 -8.708,-13.018c-0.411,-0.82 -1.115,-2.052 -2.111,-3.694h-0.176c-0.176,2.581 -0.147,5.189 0.088,7.828c0,0.118 0.044,0.323 0.132,0.616c0.088,0.294 0.132,0.527 0.132,0.703v6.069c0,2.815 -0.118,5.044 -0.352,6.686c0.059,0.821 0.207,2.022 0.443,3.606c0.827,0.47 1.832,0.703 3.015,0.703c0.473,0 1.122,-0.058 1.95,-0.176c0.827,-0.117 1.448,-0.176 1.862,-0.176c1.714,0 2.954,0.615 3.725,1.847c0.292,1.174 -0.323,2.111 -1.848,2.815c-1.29,0.646 -2.551,0.909 -3.782,0.791c-1.759,-0.116 -4.193,-0.023 -7.301,0.279c-1.114,0.125 -2.786,0.436 -5.014,0.932c-1.643,0.309 -3.138,0.432 -4.486,0.373c-2.639,-0.234 -3.958,-1.407 -3.958,-3.519c0,-0.352 0.058,-0.704 0.175,-1.056c0.929,-1.407 2.587,-2.111 4.971,-2.111c0.29,0 0.755,0 1.396,0c0.581,0 1.017,0 1.309,0c1.162,0 1.976,-0.204 2.441,-0.615c0,-0.353 0,-0.938 0,-1.76v-9.499c0.234,-0.646 0.322,-1.554 0.265,-2.728c-0.06,-0.996 -0.118,-1.992 -0.176,-2.99c-0.06,-1.583 -0.177,-3.02 -0.353,-4.311c-0.118,-2.11 -0.264,-4.926 -0.439,-8.443c0,0.176 0.028,-0.381 0.088,-1.672c0.058,-0.762 -0.132,-1.289 -0.571,-1.583c-0.44,-0.293 -1.13,-0.44 -2.067,-0.44c-0.47,0 -1.174,0.06 -2.111,0.177c-0.938,0.118 -1.643,0.176 -2.111,0.176c-2.229,0 -3.342,-1.173 -3.342,-3.519c0,-0.293 0.262,-0.704 0.787,-1.231c0.525,-0.528 0.964,-0.82 1.314,-0.88c0.758,-0.176 2.305,-0.204 4.641,-0.088c0.7,0 1.736,-0.044 3.107,-0.132c1.372,-0.088 2.351,-0.132 2.935,-0.132c0.408,0 1.079,0.298 2.014,0.895c0.935,0.597 1.576,1.191 1.927,1.787c0.059,0 1.714,2.955 4.964,8.861c1.292,2.402 2.776,4.88 4.452,7.428c1.674,2.55 3.628,5.641 5.861,9.272c1.468,2.521 3.613,6.329 6.435,11.427c0.234,-0.996 0.353,-2.052 0.353,-3.166c0,-0.293 0.058,-0.981 0.176,-2.067c0.118,-1.084 0.177,-1.861 0.177,-2.331c0,-0.469 -0.059,-1.216 -0.176,-2.243c-0.118,-1.025 -0.176,-1.568 -0.176,-1.627v-5.102c0,-0.528 -0.146,-7.741 -0.436,-21.639c-0.233,-0.058 -0.495,-0.088 -0.786,-0.088c-0.523,0 -1.309,0.118 -2.355,0.352c-1.048,0.235 -1.774,0.383 -2.182,0.44c-0.757,-0.058 -1.775,-0.088 -3.055,-0.088c-0.058,-0.058 -0.451,-0.337 -1.178,-0.836c-0.729,-0.498 -1.062,-0.924 -1.004,-1.275c0,-0.409 0.146,-0.968 0.44,-1.671c0.82,-0.997 1.904,-1.584 3.254,-1.76c1.113,-0.058 2.229,-0.117 3.343,-0.176c2.99,-0.058 7.71,-0.381 14.161,-0.968c0.88,-0.116 1.817,0.132 2.815,0.748c0.996,0.615 1.495,1.275 1.495,1.979c-0.001,0.299 -0.12,0.563 -0.353,0.796z" data-paper-data="{&quot;origPos&quot;:null}" fill="#ffffff"/><path d="M320.42883,187.93001c-0.79,0.8 -1.85,1.66 -3.23,2.4c0.2,1.58 0.43,3.39 0.7,5.42c0.4,1.04 0.83,2.26 1.29,3.74c0.19,0.63 0.33,1.27 0.41,1.93c0.59,4.76 -1.34,9.39 -5.17,12.36c-2.73,2.12 -6.02,3.25 -9.52,3.25c-2.67,0 -5.14,-0.67 -7.24,-1.92c-2.96,1.09 -6.16,1.65 -9.57,1.65c-4.94,0 -9.78,-1.19 -14.36,-3.55c-4.17,-2.06 -7.57,-5.44 -10.12,-10.03c-3.02,-5.45 -4.55,-12.01 -4.55,-19.5c0,-2.18 0.12,-4.1 0.38,-5.86c0.17,-1.2 0.39,-2.91 0.68,-5.13c0.12,-0.95 0.37,-1.88 0.73,-2.76c0.39,-1.88 0.98,-4.21 1.79,-7.08c0.11,-0.4 0.25,-0.79 0.4,-1.18c3.41,-8.36 8.3,-14.39 14.54,-17.91c4.76,-2.69 9.87,-4.06 15.18,-4.06c2.09,0 4.12,0.21 6.09,0.64c2.04,-1.3 4.65,-2.14 7.89,-2.14c1.82,0 3.56,0.37 5.19,1.09c4.2,1.79 7.1,5.49 7.79,9.99c0.02,0.14 0.04,0.28 0.06,0.42c0.28,2.42 0.14,5.42 -0.45,9.66c-0.04,1.96 -0.39,4.04 -1.07,6.34c-0.13,0.44 -0.29,0.87 -0.48,1.29c0.66,0.39 1.28,0.85 1.86,1.38c2.97,2.73 4.61,6.39 4.61,10.3c0,3.5 -1.36,6.79 -3.83,9.26z" data-paper-data="{&quot;origPos&quot;:null}" fill="#faae7d"/><path d="M313.64383,180.16501c-0.587,0.587 -1.495,0.909 -2.727,0.967c0.82,-0.058 -0.176,-0.116 -2.991,-0.176c-0.176,1.643 -0.558,3.87 -1.144,6.686c0.293,2.521 0.762,6.188 1.407,10.995c0.41,0.879 0.909,2.258 1.496,4.134c0.116,0.939 -0.221,1.716 -1.012,2.331c-0.792,0.616 -1.716,0.924 -2.771,0.924c-0.998,0 -1.73,-0.293 -2.199,-0.88c-0.06,-0.585 -0.235,-1.495 -0.528,-2.727c-0.587,-1.642 -0.851,-2.668 -0.791,-3.079c0.058,0 0,-0.116 -0.177,-0.352c-3.284,4.517 -7.652,6.773 -13.105,6.773c-3.226,0 -6.363,-0.792 -9.412,-2.375c-2.17,-1.056 -3.988,-2.903 -5.453,-5.542c-2.111,-3.812 -3.167,-8.532 -3.167,-14.162c0,-1.641 0.088,-3.078 0.264,-4.31c0.176,-1.232 0.41,-2.99 0.704,-5.277c0.116,-0.117 0.233,-0.353 0.352,-0.704c0.293,-1.7 0.908,-4.222 1.848,-7.564c2.463,-6.039 5.717,-10.203 9.763,-12.49c3.108,-1.76 6.362,-2.639 9.764,-2.639c4.104,0 7.799,1.35 11.084,4.046c0.058,-0.058 0.116,-0.321 0.176,-0.792c-0.118,-0.761 -0.118,-1.876 0,-3.342c0.233,-0.938 1.144,-1.408 2.727,-1.408c0.293,0 0.557,0.06 0.792,0.177c0.761,0.294 1.201,0.821 1.319,1.583c0.176,1.525 0,4.076 -0.528,7.652c0.058,1.056 -0.146,2.375 -0.615,3.958c-0.646,0.704 -1.379,1.056 -2.199,1.056c-1.29,0 -2.229,-0.557 -2.814,-1.671c0,-0.41 -0.088,-0.938 -0.264,-1.584c-0.938,-1.641 -2.023,-2.931 -3.255,-3.87c-1.584,-1.231 -3.754,-1.935 -6.51,-2.11c-4.749,-0.41 -8.532,1.378 -11.347,5.365c-1.994,2.933 -3.401,6.421 -4.222,10.468c-0.176,0.527 -0.411,1.35 -0.704,2.463c-0.646,3.577 -0.968,6.803 -0.968,9.675c0,4.047 0.645,7.917 1.936,11.611c0.762,2.17 2.315,3.93 4.662,5.277c2.169,1.291 4.397,1.936 6.685,1.936c1.524,0 3.049,-0.322 4.574,-0.968c1.056,-0.409 2.668,-2.315 4.838,-5.718c0.469,-0.761 0.85,-1.641 1.144,-2.639c0.352,-1.348 0.585,-2.199 0.703,-2.551c0.469,-1.113 0.718,-2.536 0.748,-4.266c0.028,-1.729 0.161,-2.976 0.396,-3.738c-1.466,-0.117 -3.46,0 -5.981,0.352c-3.401,0.527 -5.132,0.791 -5.189,0.791c-1.935,0 -3.313,-0.761 -4.134,-2.286c-0.235,-0.528 -0.294,-1.085 -0.176,-1.672c0.233,-0.703 0.732,-1.319 1.495,-1.847c1.172,-0.88 3.136,-1.201 5.894,-0.968c4.163,0.411 7.505,0.615 10.027,0.615c0.352,0 1.319,-0.028 2.902,-0.088c1.408,-0.058 2.463,-0.058 3.167,0c0.88,-0.058 1.905,0.03 3.079,0.265c0.703,0.646 1.055,1.378 1.055,2.198c-0.003,0.588 -0.209,1.087 -0.618,1.497z" data-paper-data="{&quot;origPos&quot;:null}" fill="#ffffff"/><path d="M371.93083,172.084v4.84c0,2.87 -0.5,6.95 -1.57,12.84c-0.44,2.74 -1.28,5.56 -2.49,8.39c-0.02,0.04 -0.04,0.07 -0.05,0.11c-2.15,4.85 -5.69,9.08 -10.53,12.57c-5.16,3.71 -10.5,5.59 -15.89,5.59c-2.18,0 -4.26,-0.34 -6.21,-1c-6.91,-2.23 -12.37,-6.47 -16.22,-12.6c-0.83,-1.35 -1.65,-3.02 -2.67,-5.46c-0.02,-0.06 -0.04,-0.11 -0.07,-0.17c-1.26,-3.16 -1.93,-5.69 -2.11,-7.97c-0.03,-0.39 -0.14,-1.33 -0.5,-3.17c-0.13,-0.69 -0.2,-1.39 -0.2,-2.09v-4.28c-0.44,-1.69 -0.48,-3.5 -0.05,-5.29c0.16,-0.69 0.39,-1.36 0.67,-1.98c0,-1.22 0.21,-2.44 0.61,-3.6c0.11,-0.5 0.26,-0.99 0.44,-1.48c0.01,-0.01 0.19,-0.52 0.44,-1.93c0.3,-1.73 0.86,-3.96 1.7,-6.77c0.01,-0.03 0.02,-0.07 0.03,-0.1c1.63,-5.24 4.92,-10.21 10.06,-15.19c0.04,-0.04 0.07,-0.07 0.11,-0.1c2.6,-2.46 5.6,-4.02 8.92,-4.66c0.6,-0.11 1.21,-0.17 1.83,-0.19c0.38,-0.01 1.39,-0.07 3.04,-0.16c0.06,0 0.12,-0.01 0.18,-0.01c4.87,-0.2 9.48,0.84 13.75,3.07c4.93,2.52 8.83,6.31 11.6,11.27c1.31,2.35 2.43,5.2 3.43,8.74c1.17,4.01 1.75,7.54 1.75,10.78z" data-paper-data="{&quot;origPos&quot;:null}" fill="#e6d3cd"/><path d="M361.92783,176.925c0,2.17 -0.471,5.836 -1.408,10.995c-0.293,1.877 -0.879,3.842 -1.76,5.894c-1.35,3.05 -3.65,5.748 -6.904,8.093c-3.255,2.345 -6.407,3.518 -9.456,3.518c-0.997,0 -1.906,-0.146 -2.727,-0.439c-4.457,-1.407 -7.916,-4.075 -10.379,-8.005c-0.471,-0.761 -1.086,-2.052 -1.848,-3.87c-0.821,-2.052 -1.275,-3.635 -1.363,-4.75c-0.088,-1.113 -0.308,-2.579 -0.66,-4.397v-6.51c0.234,-0.116 0.117,-0.292 -0.352,-0.527h0.528c0,-0.293 0.116,-0.85 0.352,-1.671c0.233,-0.821 0.352,-1.437 0.352,-1.848c0,-0.352 -0.088,-0.674 -0.264,-0.968c0.233,0 0.439,-0.088 0.615,-0.264c-0.059,-0.117 -0.206,-0.176 -0.439,-0.176c0.058,-0.058 0.161,-0.146 0.308,-0.264c0.146,-0.117 0.249,-0.205 0.309,-0.264c-0.06,-0.059 -0.132,-0.103 -0.221,-0.133c-0.088,-0.028 -0.162,-0.072 -0.22,-0.132c0.353,-0.938 0.674,-2.228 0.968,-3.87c0.233,-1.348 0.704,-3.195 1.407,-5.541c1.056,-3.4 3.46,-6.919 7.213,-10.556c1.056,-0.996 2.199,-1.612 3.431,-1.847c0.176,0 1.319,-0.059 3.431,-0.177c2.932,-0.116 5.687,0.499 8.268,1.848c2.992,1.525 5.336,3.812 7.037,6.861c0.881,1.583 1.701,3.724 2.463,6.421c0.881,2.99 1.32,5.571 1.32,7.74v4.839zM356.12283,167.162c-0.35,-0.82 -0.76,-1.876 -1.227,-3.167c-0.586,-2.639 -2.325,-5.071 -5.217,-7.301c-2.893,-2.228 -5.566,-3.224 -8.021,-2.99c-1.11,0.118 -2.981,1.966 -5.612,5.542c-1.286,1.701 -2.571,5.102 -3.856,10.203c-1.169,4.75 -1.725,8.415 -1.665,10.995c0.116,3.284 0.292,5.571 0.526,6.86c0.408,2.405 1.285,4.604 2.629,6.598c1.286,1.759 2.28,2.902 2.981,3.431c2.629,1.877 5.112,2.814 7.451,2.814c0.525,0 1.022,-0.058 1.49,-0.176c1.11,-0.176 2.424,-0.908 3.944,-2.199c1.286,-1.173 2.25,-2.257 2.894,-3.255c0.876,-1.465 1.695,-3.664 2.455,-6.597c1.168,-4.28 1.754,-8.825 1.754,-13.634c0.002,-2.579 -0.174,-4.954 -0.526,-7.124z" data-paper-data="{&quot;origPos&quot;:null}" fill="#ffffff"/><path d="M218.61483,203.65401c-0.412,0.47 -1.262,0.938 -2.551,1.407c-4.811,1.877 -8.943,4.193 -12.402,6.949c-0.646,0.469 -1.791,0.732 -3.432,0.791c-0.47,0 -0.954,-0.206 -1.451,-0.615c-0.499,-0.41 -0.748,-0.88 -0.748,-1.407c0,-0.704 0.792,-1.612 2.375,-2.728c1.113,-0.703 2.229,-1.437 3.344,-2.199c0.057,-0.292 -0.91,-3.752 -2.906,-10.379c-3.228,-0.058 -8.305,0.996 -15.229,3.165c-0.412,0.118 -0.647,0.352 -0.705,0.704c-0.059,0.352 -0.147,0.937 -0.264,1.758c-0.113,0.176 -0.225,0.439 -0.337,0.791c0,0.235 0.337,0.485 1.012,0.749c0.673,0.265 1.1,0.515 1.275,0.748c0.176,0.235 0.264,0.527 0.264,0.88c0,0.703 -0.308,1.364 -0.924,1.98c-0.615,0.615 -1.363,0.923 -2.242,0.923c0.058,0 -0.998,-0.146 -3.167,-0.439c-0.411,-0.058 -3.079,-0.293 -8.005,-0.703c-2.346,-0.234 -3.9,-0.586 -4.661,-1.056c-0.528,-0.352 -0.792,-0.821 -0.792,-1.407c0,-1.408 0.704,-2.229 2.111,-2.463c0.82,-0.117 1.876,-0.059 3.166,0.176c0.293,0.118 2.608,0.322 6.949,0.615c0.352,-2.463 0.938,-5.894 1.759,-10.291c1.817,-7.213 3.724,-16.361 5.718,-27.444c-0.587,-0.116 -1.202,-0.176 -1.847,-0.176c-1.115,0 -2.771,0.323 -4.971,0.968c-2.198,0.646 -3.826,0.968 -4.882,0.968c-0.41,0 -0.997,-0.321 -1.759,-0.968c-0.235,-0.704 -0.074,-1.333 0.483,-1.891c0.557,-0.557 1.173,-0.894 1.848,-1.012c0.674,-0.117 1.744,-0.322 3.211,-0.616c2.521,-0.469 5.57,-0.82 9.147,-1.056c1.7,-0.116 2.58,-0.176 2.639,-0.176c0.938,0.118 1.642,0.572 2.111,1.363c0.469,0.792 0.938,2.067 1.407,3.826c0.586,2.171 0.981,3.49 1.188,3.959c0.205,0.47 0.542,1.231 1.012,2.287c0.233,0.703 0.673,1.759 1.319,3.166c1.349,3.226 3.459,8.269 6.334,15.129c1.055,2.815 2.727,7.097 5.014,12.843c0.996,-0.117 2.287,-0.616 3.869,-1.495c1.584,-0.88 2.756,-1.319 3.52,-1.319c0.703,0 1.377,0.264 2.023,0.791c0.176,0.176 0.32,0.616 0.439,1.319c0.059,0.764 -0.029,1.292 -0.262,1.585zM199.08683,190.90301c-1.001,-1.935 -2.264,-4.869 -3.792,-8.8c-0.588,-1.349 -2.174,-4.868 -4.761,-10.56l-4.35,22.176c5.267,-0.996 9.391,-1.759 12.376,-2.288c0.351,-0.233 0.527,-0.41 0.527,-0.528z" data-paper-data="{&quot;origPos&quot;:null}" fill="#ffffff"/></g></g></g></svg>